# xmcd CD database file
#
# Track frame offsets:
#	150
#	20722
#	35465
#	50155
#	66992
#	86547
#	103955
#	117862
#	140852
#	158102
#	181382
#
# Disc length: 2621 seconds
#
# Revision: 0
# Processed by: cddbd v1.5PL3 Copyright (c) Steve Scherf et al.
# Submitted via: CDex 1.51
#
DISCID=a20a3b0b
DTITLE=b-flower - World's End Laundry
DYEAR=1993
DGENRE=Pop
TTITLE0=リラの咲く日々
TTITLE1=天使のチェインソー
TTITLE2=トゥッティ・フルッティ・アイスクリームが溶けて悲しい
TTITLE3=紺碧の空、キッチンの赤い壁
TTITLE4=夜の国へ
TTITLE5=始まる，もしくは　そこで終わる
TTITLE6=冷蔵庫に捨てる
TTITLE7=舟
TTITLE8=星狩りの夜
TTITLE9=夏の日の葉脈
TTITLE10=35°07′
EXTD=YEAR: 1993
EXTT0=
EXTT1=
EXTT2=
EXTT3=
EXTT4=
EXTT5=
EXTT6=
EXTT7=
EXTT8=
EXTT9=
EXTT10=
PLAYORDER=
